<?xml version="1.0" encoding="UTF-8"?> <svg xmlns="http://www.w3.org/2000/svg" width="72" height="72" viewBox="0 0 72 72" fill="none"> <path d="M24.4008 43.5008L16.3008 39.1008V30.6008L25.7008 25.3008L33.5008 29.3008L24.4008 34.8008V43.5008Z" fill="#005ebb"></path> <path d="M47.3008 45.4004C53.0998 45.4004 57.8008 40.6994 57.8008 34.9004C57.8008 29.1014 53.0998 24.4004 47.3008 24.4004C41.5018 24.4004 36.8008 29.1014 36.8008 34.9004C36.8008 40.6994 41.5018 45.4004 47.3008 45.4004Z" stroke="#005ebb" stroke-width="0.5" stroke-miterlimit="10"></path> <path d="M59.1 34.8004C58.9 39.5004 55 43.9004 50.5 45.1004C54.4 43.6004 57.6 39.4004 57.8 35.2004C58 29.4004 53.3 24.6004 47.2 24.4004C46.1 24.4004 45 24.5004 44 24.7004C45.4 24.2004 47 23.9004 48.6 23.9004C54.6 24.2004 59.3 29.0004 59.1 34.8004Z" fill="#005ebb"></path> <path d="M47.3004 42.8C51.6634 42.8 55.2004 39.2631 55.2004 34.9C55.2004 30.537 51.6634 27 47.3004 27C42.9373 27 39.4004 30.537 39.4004 34.9C39.4004 39.2631 42.9373 42.8 47.3004 42.8Z" stroke="#005ebb" stroke-width="0.5" stroke-miterlimit="10"></path> <path d="M49.001 42.5012C48.601 42.6012 48.301 42.6012 47.901 42.6012C43.601 42.9012 39.801 39.6012 39.601 35.4012C39.301 31.1012 42.601 27.5012 47.001 27.2012C47.101 27.2012 47.301 27.2012 47.401 27.2012C43.601 28.0012 40.901 31.4012 41.101 35.2012C41.301 39.4012 44.801 42.6012 49.001 42.5012Z" fill="#005ebb"></path> <path d="M53.9992 43.4004L62.9992 61.6004C63.3992 62.4004 63.0992 63.4004 62.2992 63.7004C61.4992 64.1004 60.4992 63.8004 60.1992 63.0004L51.1992 44.9004" stroke="#005ebb" stroke-width="0.5" stroke-miterlimit="10"></path> <path d="M63.3 63.2C63.1 63.4 62.5 63.8 62.3 63.8C62.7 63.3 63.3 62.1 63 61.5L54 43L55 42.5L64 61C64.4 61.9 64 62.7 63.3 63.2Z" fill="#005ebb"></path> <path d="M36.4 68.4004L8 55.7004V53.9004L36.3 66.6004L36.4 68.4004Z" fill="#005ebb"></path> <path d="M36.4 68.3988L8 55.4988V26.7988L36.4 39.9988V68.3988Z" stroke="#005ebb" stroke-width="0.5" stroke-miterlimit="10"></path> <path d="M37.8012 39.2988L36.2012 40.0988" stroke="#005ebb" stroke-width="0.5" stroke-miterlimit="10"></path> <path d="M54.3016 31.1992L40.6016 37.7992" stroke="#005ebb" stroke-width="0.5" stroke-miterlimit="10"></path> <path d="M60.5008 56.5L62.5008 55.5L62.0008 27.5L56.8008 30" stroke="#005ebb" stroke-width="0.5" stroke-miterlimit="10"></path> <path d="M7.80078 26.6996L34.8008 14.0996L62.1008 27.2996" stroke="#005ebb" stroke-width="0.5" stroke-miterlimit="10"></path> <path d="M22.6012 31.8L21.7012 30.1L44.0012 18.5L45.8012 19.6L22.6012 31.8Z" fill="#005ebb"></path> <path d="M57.0012 56.998L57.9012 58.798L36.6012 68.798L36.2012 66.898L57.0012 56.998Z" fill="#005ebb"></path> <path d="M62.5008 55.4988L60.7008 56.8988L59.8008 55.0988L62.5008 53.7988V55.4988Z" fill="#005ebb"></path> </svg>