<?xml version="1.0" encoding="UTF-8"?> <svg xmlns="http://www.w3.org/2000/svg" width="72" height="72" viewBox="0 0 72 72" fill="none"> <path d="M24.4008 43.4969L16.3008 39.0969V30.5969L25.7008 25.2969L33.5008 29.2969L24.4008 34.7969V43.4969Z" fill="#0e2127"></path> <path d="M47.3008 45.3984C53.0998 45.3984 57.8008 40.6974 57.8008 34.8984C57.8008 29.0994 53.0998 24.3984 47.3008 24.3984C41.5018 24.3984 36.8008 29.0994 36.8008 34.8984C36.8008 40.6974 41.5018 45.3984 47.3008 45.3984Z" stroke="#0e2127" stroke-width="0.5" stroke-miterlimit="10"></path> <path d="M59.1 34.7984C58.9 39.4984 55 43.8984 50.5 45.0984C54.4 43.5984 57.6 39.3984 57.8 35.1984C58 29.3984 53.3 24.5984 47.2 24.3984C46.1 24.3984 45 24.4984 44 24.6984C45.4 24.1984 47 23.8984 48.6 23.8984C54.6 24.1984 59.3 28.9984 59.1 34.7984Z" fill="#0e2127"></path> <path d="M47.3004 42.8C51.6634 42.8 55.2004 39.2631 55.2004 34.9C55.2004 30.537 51.6634 27 47.3004 27C42.9373 27 39.4004 30.537 39.4004 34.9C39.4004 39.2631 42.9373 42.8 47.3004 42.8Z" stroke="#0e2127" stroke-width="0.5" stroke-miterlimit="10"></path> <path d="M49.001 42.4992C48.601 42.5992 48.301 42.5992 47.901 42.5992C43.601 42.8992 39.801 39.5992 39.601 35.3992C39.301 31.0992 42.601 27.4992 47.001 27.1992C47.101 27.1992 47.301 27.1992 47.401 27.1992C43.601 27.9992 40.901 31.3992 41.101 35.1992C41.301 39.3992 44.801 42.5992 49.001 42.4992Z" fill="#0e2127"></path> <path d="M53.9992 43.3984L62.9992 61.5984C63.3992 62.3984 63.0992 63.3984 62.2992 63.6984C61.4992 64.0984 60.4992 63.7984 60.1992 62.9984L51.1992 44.8984" stroke="#0e2127" stroke-width="0.5" stroke-miterlimit="10"></path> <path d="M63.3 63.198C63.1 63.398 62.5 63.798 62.3 63.798C62.7 63.298 63.3 62.098 63 61.498L54 42.998L55 42.498L64 60.998C64.4 61.898 64 62.698 63.3 63.198Z" fill="#0e2127"></path> <path d="M36.4 68.3984L8 55.6984V53.8984L36.3 66.5984L36.4 68.3984Z" fill="#0e2127"></path> <path d="M36.4 68.4008L8 55.5008V26.8008L36.4 40.0008V68.4008Z" stroke="#0e2127" stroke-width="0.5" stroke-miterlimit="10"></path> <path d="M37.8012 39.3008L36.2012 40.1008" stroke="#0e2127" stroke-width="0.5" stroke-miterlimit="10"></path> <path d="M54.3016 31.2031L40.6016 37.8031" stroke="#0e2127" stroke-width="0.5" stroke-miterlimit="10"></path> <path d="M60.5008 56.5L62.5008 55.5L62.0008 27.5L56.8008 30" stroke="#0e2127" stroke-width="0.5" stroke-miterlimit="10"></path> <path d="M7.80078 26.7016L34.8008 14.1016L62.1008 27.3016" stroke="#0e2127" stroke-width="0.5" stroke-miterlimit="10"></path> <path d="M22.6012 31.8L21.7012 30.1L44.0012 18.5L45.8012 19.6L22.6012 31.8Z" fill="#0e2127"></path> <path d="M57.0012 57L57.9012 58.8L36.6012 68.8L36.2012 66.9L57.0012 57Z" fill="#0e2127"></path> <path d="M62.5008 55.5008L60.7008 56.9008L59.8008 55.1008L62.5008 53.8008V55.5008Z" fill="#0e2127"></path> </svg>