<?xml version="1.0" encoding="UTF-8"?> <svg xmlns="http://www.w3.org/2000/svg" width="72" height="72" viewBox="0 0 72 72" fill="none"> <path d="M55.9004 31.0008V13.8008H24.2004C20.8004 17.2008 18.8004 19.2008 15.4004 22.6008V31.0008V37.9008V67.2008H55.9004V37.9008" stroke="#ffffff" stroke-width="0.5" stroke-miterlimit="10"></path> <path d="M24.5004 13.8008V22.9008H15.4004" stroke="#ffffff" stroke-width="0.5" stroke-miterlimit="10"></path> <path d="M46.8004 51.5015L41.5004 55.8015C41.4004 55.8015 41.4004 55.8015 41.4004 55.7015L43.5004 49.2015L47.3004 43.7015L60.6004 24.4015C61.2004 23.6015 62.3004 23.4015 63.1004 23.9015L63.5004 24.2015C64.3004 24.8015 64.5004 25.9015 64.0004 26.7015L50.7004 45.9015L46.8004 51.5015Z" stroke="#ffffff" stroke-width="0.5" stroke-miterlimit="10"></path> <path d="M64.1004 26.7023L50.9004 46.0023L47.1004 51.6023L41.4004 56.0023L41.9004 54.5023L45.9004 50.8023L49.7004 45.2023L62.9004 25.9023C63.4004 25.1023 63.5004 24.2023 63.1004 23.9023C63.2004 23.9023 63.2004 24.0023 63.3004 24.0023L63.7004 24.3023C64.5004 24.8023 64.7004 25.9023 64.1004 26.7023Z" fill="#ffffff"></path> <path d="M63.6012 26.1992L64.5012 27.6992C64.8012 28.1992 64.8012 28.8992 64.5012 29.3992L59.7012 35.8992" stroke="#ffffff" stroke-width="0.5" stroke-miterlimit="10"></path> <path d="M23.4004 28.6992H47.0004" stroke="#ffffff" stroke-width="0.5" stroke-miterlimit="10"></path> <path d="M23.4004 55.8008H47.0004" stroke="#ffffff" stroke-width="0.5" stroke-miterlimit="10"></path> <path d="M20.7012 42.3008H48.1012" stroke="#ffffff" stroke-width="0.5" stroke-miterlimit="10"></path> <path d="M23.4004 49.1016H43.4004" stroke="#ffffff" stroke-width="0.5" stroke-miterlimit="10"></path> <path d="M20.7012 35.5H49.8012" stroke="#ffffff" stroke-width="0.5" stroke-miterlimit="10"></path> <path d="M58.2004 69.4016H20.9004V67.0016H55.8004V37.4016L58.2004 33.1016V69.4016Z" fill="#ffffff"></path> <path d="M58.2008 27.5L55.8008 30.7V19H58.2008V27.5Z" fill="#ffffff"></path> <path d="M64.1514 21.5227L62.4766 23.6406L64.0454 24.8812L65.7202 22.7633L64.1514 21.5227Z" fill="#ffffff"></path> </svg>