<?xml version="1.0" encoding="UTF-8"?> <svg xmlns="http://www.w3.org/2000/svg" width="72" height="72" viewBox="0 0 72 72" fill="none"> <path d="M55.9004 31.0008V13.8008H24.2004C20.8004 17.2008 18.8004 19.2008 15.4004 22.6008V31.0008V37.9008V67.2008H55.9004V37.9008" stroke="#27424F" stroke-width="0.5" stroke-miterlimit="10"></path> <path d="M24.5004 13.8008V22.9008H15.4004" stroke="#27424F" stroke-width="0.5" stroke-miterlimit="10"></path> <path d="M46.8004 51.5015L41.5004 55.8015C41.4004 55.8015 41.4004 55.8015 41.4004 55.7015L43.5004 49.2015L47.3004 43.7015L60.6004 24.4015C61.2004 23.6015 62.3004 23.4015 63.1004 23.9015L63.5004 24.2015C64.3004 24.8015 64.5004 25.9015 64.0004 26.7015L50.7004 45.9015L46.8004 51.5015Z" stroke="#27424F" stroke-width="0.5" stroke-miterlimit="10"></path> <path d="M64.1004 26.7004L50.9004 46.0004L47.1004 51.6004L41.4004 56.0004L41.9004 54.5004L45.9004 50.8004L49.7004 45.2004L62.9004 25.9004C63.4004 25.1004 63.5004 24.2004 63.1004 23.9004C63.2004 23.9004 63.2004 24.0004 63.3004 24.0004L63.7004 24.3004C64.5004 24.8004 64.7004 25.9004 64.1004 26.7004Z" fill="#27424F"></path> <path d="M63.6012 26.2012L64.5012 27.7012C64.8012 28.2012 64.8012 28.9012 64.5012 29.4012L59.7012 35.9012" stroke="#27424F" stroke-width="0.5" stroke-miterlimit="10"></path> <path d="M23.4004 28.7012H47.0004" stroke="#27424F" stroke-width="0.5" stroke-miterlimit="10"></path> <path d="M23.4004 55.8008H47.0004" stroke="#27424F" stroke-width="0.5" stroke-miterlimit="10"></path> <path d="M20.7012 42.3008H48.1012" stroke="#27424F" stroke-width="0.5" stroke-miterlimit="10"></path> <path d="M23.4004 49.1016H43.4004" stroke="#27424F" stroke-width="0.5" stroke-miterlimit="10"></path> <path d="M20.7012 35.5H49.8012" stroke="#27424F" stroke-width="0.5" stroke-miterlimit="10"></path> <path d="M58.2004 69.4016H20.9004V67.0016H55.8004V37.4016L58.2004 33.1016V69.4016Z" fill="#27424F"></path> <path d="M58.2008 27.5L55.8008 30.7V19H58.2008V27.5Z" fill="#27424F"></path> <path d="M64.1514 21.5227L62.4766 23.6406L64.0454 24.8812L65.7202 22.7633L64.1514 21.5227Z" fill="#27424F"></path> </svg> 