<?xml version="1.0" encoding="UTF-8"?> <svg xmlns="http://www.w3.org/2000/svg" viewBox="0 0 72 72"> <defs> <style> .cls-1 { fill: #27424f; } .cls-2 { stroke-miterlimit: 10; } .cls-2, .cls-3 { fill: none; stroke: #27424f; stroke-width: .5px; } .cls-3 { stroke-linejoin: bevel; } </style> </defs> <g id="_Слой_4" data-name="Слой 4"> <circle class="cls-2" cx="19.5" cy="59.58" r="5.02"></circle> <path class="cls-1" d="m25.62,59.45c0,2.88-2.14,5.21-5.38,5.21-.09,0-.18,0-.26,0,2.44-.64,4.22-2.63,4.22-5,0-2.82-2.51-5.1-5.64-5.2.53-.14,1.09-.22,1.67-.22,3.24,0,5.38,2.34,5.38,5.21Z"></path> <circle class="cls-2" cx="19.63" cy="59.58" r="2.34"></circle> <circle class="cls-2" cx="55.67" cy="59.7" r="5.02"></circle> <path class="cls-1" d="m61.78,59.58c0,2.88-2.14,5.21-5.38,5.21-.09,0-.18,0-.26,0,2.44-.64,4.22-2.63,4.22-5,0-2.82-2.51-5.1-5.64-5.2.53-.14,1.09-.22,1.67-.22,3.24,0,5.38,2.34,5.38,5.21Z"></path> <circle class="cls-2" cx="55.79" cy="59.7" r="2.34"></circle> <polygon class="cls-1" points="71.33 54.26 71.33 56.44 65.35 58.97 60.69 58.81 60.15 56.97 64.94 56.97 71.33 54.26"></polygon> <polygon class="cls-1" points="50.65 58.45 25.42 58.97 24.87 56.97 51.6 56.97 50.65 58.45"></polygon> <polygon class="cls-1" points="14.75 58.97 3.19 58.97 3.19 56.48 15.05 56.85 14.75 58.97"></polygon> </g> <g id="_Слой_5" data-name="Слой 5"> <polyline class="cls-2" points="15.29 56.85 3.44 56.75 3.29 29.05 47.2 29.22 47.94 56.82 23.71 56.85"></polyline> <polyline class="cls-2" points="3.24 29 10.19 25.49 54.3 25.72 54.59 36.41 65.14 36.34 70.84 43.95 71.12 54.15 64.51 57.05"></polyline> <line class="cls-2" x1="47.2" y1="29.22" x2="54.31" y2="25.95"></line> <line class="cls-2" x1="51.56" y1="56.85" x2="47.72" y2="56.84"></line> <polyline class="cls-2" points="59.13 38.91 64.68 46.45 64.74 56.87 60.15 56.85"></polyline> <polyline class="cls-3" points="54.59 36.41 47.47 39.23 59.13 38.91"></polyline> <line class="cls-2" x1="59.13" y1="38.91" x2="65.14" y2="36.34"></line> <polyline class="cls-2" points="70.84 43.95 64.68 46.45 50.38 46.45 50.18 39.27"></polyline> </g> </svg> 