<?xml version="1.0" encoding="UTF-8"?> <!-- Generator: Adobe Illustrator 27.3.0, SVG Export Plug-In . SVG Version: 6.00 Build 0) --> <svg xmlns="http://www.w3.org/2000/svg" xmlns:xlink="http://www.w3.org/1999/xlink" x="0px" y="0px" viewBox="0 0 72 72" style="enable-background:new 0 0 72 72;" xml:space="preserve"> <style type="text/css"> .st0{fill:none;stroke:#005ebb;stroke-miterlimit:10;} .st1{fill:#005ebb;} .st2{fill:none;stroke:#005ebb;stroke-width:0.5;stroke-miterlimit:10;} .st3{fill:none;stroke:#ffffff;stroke-width:0.5;stroke-miterlimit:10;} .st4{fill:#ffffff;} .st5{fill:none;stroke:#ffffff;stroke-width:0.5;stroke-linejoin:bevel;stroke-miterlimit:10;} </style> <g id="Слой_1"> </g> <g id="Слой_2"> </g> <g id="Слой_3"> </g> <g id="Слой_4"> <circle class="st3" cx="19.5" cy="59.6" r="5"></circle> <path class="st4" d="M25.6,59.5c0,2.9-2.1,5.2-5.4,5.2c-0.1,0-0.2,0-0.3,0c2.4-0.6,4.2-2.6,4.2-5c0-2.8-2.5-5.1-5.6-5.2 c0.5-0.1,1.1-0.2,1.7-0.2C23.5,54.2,25.6,56.6,25.6,59.5z"></path> <circle class="st3" cx="19.6" cy="59.6" r="2.3"></circle> <circle class="st3" cx="55.7" cy="59.7" r="5"></circle> <path class="st4" d="M61.8,59.6c0,2.9-2.1,5.2-5.4,5.2c-0.1,0-0.2,0-0.3,0c2.4-0.6,4.2-2.6,4.2-5c0-2.8-2.5-5.1-5.6-5.2 c0.5-0.1,1.1-0.2,1.7-0.2C59.6,54.4,61.8,56.7,61.8,59.6z"></path> <circle class="st3" cx="55.8" cy="59.7" r="2.3"></circle> <g> <polygon class="st4" points="71.3,54.3 71.3,56.4 65.3,59 60.7,58.8 60.1,57 64.9,57 "></polygon> </g> <g> <polygon class="st4" points="50.6,58.5 25.4,59 24.9,57 51.6,57 "></polygon> </g> <g> <polygon class="st4" points="14.8,59 3.2,59 3.2,56.5 15,56.8 "></polygon> </g> </g> <g id="Слой_5"> <polyline class="st3" points="15.3,56.8 3.4,56.7 3.3,29 47.2,29.2 47.9,56.8 23.7,56.8 "></polyline> <polyline class="st3" points="3.2,29 10.2,25.5 54.3,25.7 54.6,36.4 65.1,36.3 70.8,43.9 71.1,54.2 64.5,57 "></polyline> <line class="st3" x1="47.2" y1="29.2" x2="54.3" y2="26"></line> <line class="st3" x1="51.6" y1="56.8" x2="47.7" y2="56.8"></line> <polyline class="st3" points="59.1,38.9 64.7,46.4 64.7,56.9 60.1,56.8 "></polyline> <polyline class="st5" points="54.6,36.4 47.5,39.2 59.1,38.9 "></polyline> <line class="st3" x1="59.1" y1="38.9" x2="65.1" y2="36.3"></line> <polyline class="st3" points="70.8,43.9 64.7,46.4 50.4,46.4 50.2,39.3 "></polyline> </g> </svg>