<?xml version="1.0" encoding="UTF-8"?> <svg xmlns="http://www.w3.org/2000/svg" width="72" height="72" viewBox="0 0 72 72" fill="none"> <path d="M50.1004 67.8H11.4004L13.8004 26H46.6004L50.1004 67.8Z" stroke="#005ebb" stroke-width="0.5" stroke-miterlimit="10"></path> <path d="M46.5996 26.0004L54.0996 23.4004L59.8996 67.9004L50.0996 67.8004" stroke="#005ebb" stroke-width="0.5" stroke-miterlimit="10"></path> <path d="M13.8008 26.0012L23.8008 23.2012H54.3008" stroke="#005ebb" stroke-width="0.5" stroke-miterlimit="10"></path> <path d="M23.9004 28.5004V21.2004C23.9004 16.9004 27.4004 13.4004 31.7004 13.4004C36.0004 13.4004 39.5004 16.9004 39.5004 21.2004V28.8004" stroke="#005ebb" stroke-width="0.5" stroke-miterlimit="10"></path> <path d="M29.5996 23.2004V21.7004C29.5996 17.4004 33.0996 13.9004 37.3996 13.9004C41.6996 13.9004 45.1996 17.4004 45.1996 21.7004V23.2004" stroke="#005ebb" stroke-width="0.5" stroke-miterlimit="10"></path> <path d="M59.9004 65.9004H11.4004V67.9004H59.9004V65.9004Z" fill="#005ebb"></path> <path d="M50.5 24.5996L55.2 65.8996" stroke="#005ebb" stroke-width="0.5" stroke-miterlimit="10"></path> </svg>