<?xml version="1.0" encoding="UTF-8"?> <svg xmlns="http://www.w3.org/2000/svg" width="72" height="72" viewBox="0 0 72 72" fill="none"> <path d="M50.1004 67.8H11.4004L13.8004 26H46.6004L50.1004 67.8Z" stroke="#ffffff" stroke-width="0.5" stroke-miterlimit="10"></path> <path d="M46.5996 25.9984L54.0996 23.3984L59.8996 67.8984L50.0996 67.7984" stroke="#ffffff" stroke-width="0.5" stroke-miterlimit="10"></path> <path d="M13.8008 25.9992L23.8008 23.1992H54.3008" stroke="#ffffff" stroke-width="0.5" stroke-miterlimit="10"></path> <path d="M23.9004 28.4984V21.1984C23.9004 16.8984 27.4004 13.3984 31.7004 13.3984C36.0004 13.3984 39.5004 16.8984 39.5004 21.1984V28.7984" stroke="#ffffff" stroke-width="0.5" stroke-miterlimit="10"></path> <path d="M29.5996 23.1984V21.6984C29.5996 17.3984 33.0996 13.8984 37.3996 13.8984C41.6996 13.8984 45.1996 17.3984 45.1996 21.6984V23.1984" stroke="#ffffff" stroke-width="0.5" stroke-miterlimit="10"></path> <path d="M59.9004 65.8984H11.4004V67.8984H59.9004V65.8984Z" fill="#ffffff"></path> <path d="M50.5 24.5977L55.2 65.8977" stroke="#ffffff" stroke-width="0.5" stroke-miterlimit="10"></path> </svg>