<?xml version="1.0" encoding="UTF-8"?> <svg xmlns="http://www.w3.org/2000/svg" width="72" height="72" viewBox="0 0 72 72" fill="none"> <path d="M45.1008 68.9008H51.0008V28.2008L29.0008 17.3008L8.80078 28.2008V68.9008H14.6008V42.5008H44.8008L45.1008 68.9008Z" stroke="#ffffff" stroke-width="0.5" stroke-miterlimit="10"></path> <path d="M29 17.3008H44.2L66.3 28.2008V68.9008H51" stroke="#ffffff" stroke-width="0.5" stroke-miterlimit="10"></path> <path d="M33.2008 58.8016V59.0016H22.8008V58.8016L27.8008 58.9016L28.1008 58.6016L33.2008 58.8016Z" fill="#ffffff"></path> <path d="M33.2008 59.0008L35.6008 58.9008V47.3008H25.3008L22.8008 49.5008L33.0008 49.7008L33.2008 59.0008Z" fill="#ffffff"></path> <path d="M28.0016 59.1016H17.6016V68.8016H28.0016V59.1016Z" stroke="#ffffff" stroke-width="0.5" stroke-miterlimit="10"></path> <path d="M21.0004 56.8008H23.0004V59.0008L17.4004 58.8008L21.0004 56.8008Z" fill="#ffffff"></path> <path d="M38.4 59.1016H28V68.8016H38.4V59.1016Z" stroke="#ffffff" stroke-width="0.5" stroke-miterlimit="10"></path> <path d="M40.7012 56.5V67L38.5012 69L38.1012 58.9L33.2012 58.8V56.5H40.7012Z" fill="#ffffff"></path> <path d="M33.0016 49.7012H23.1016V58.8012H33.0016V49.7012Z" stroke="#ffffff" stroke-width="0.5" stroke-miterlimit="10"></path> <path d="M66.3 66.9004H45V68.9004H66.3V66.9004Z" fill="#ffffff"></path> <path d="M14.6008 66.9004H8.80078V68.9004H14.6008V66.9004Z" fill="#ffffff"></path> </svg>