<?xml version="1.0" encoding="UTF-8"?> <svg xmlns="http://www.w3.org/2000/svg" width="512" height="512" viewBox="0 0 512 512" fill="none"> <path fill-rule="evenodd" clip-rule="evenodd" d="M255.936 0H256.064C397.216 0 512 114.848 512 256C512 397.152 397.216 512 256.064 512C204 512 155.712 496.512 115.232 469.696L16.832 501.152L48.736 406.048C18.048 363.904 0 312 0 256C0 114.816 114.784 0 255.936 0ZM354.784 397.632C374.336 393.408 398.848 378.944 405.024 361.504C411.2 344.032 411.2 329.152 409.408 325.984C407.961 323.47 404.539 321.823 399.431 319.364C398.102 318.723 396.657 318.028 395.104 317.248C387.584 313.504 351.008 295.424 344.096 293.024C337.312 290.464 330.848 291.36 325.728 298.592C324.754 299.956 323.782 301.322 322.816 302.681C316.639 311.368 310.681 319.747 305.728 325.088C301.216 329.888 293.856 330.496 287.68 327.936C287.007 327.655 286.235 327.344 285.371 326.994C275.592 323.045 253.902 314.285 227.648 290.912C205.504 271.2 190.464 246.656 186.112 239.296C181.839 231.913 185.525 227.583 188.931 223.582C188.994 223.508 189.057 223.434 189.12 223.36C191.316 220.643 193.447 218.38 195.589 216.106C197.13 214.47 198.676 212.829 200.256 211.008C200.491 210.738 200.719 210.475 200.941 210.22C204.296 206.363 206.293 204.066 208.544 199.264C211.104 194.304 209.28 189.184 207.456 185.408C206.201 182.764 198.448 163.953 191.793 147.806C188.945 140.896 186.299 134.475 184.448 130.016C179.488 118.144 175.712 117.696 168.192 117.376C167.962 117.364 167.729 117.353 167.494 117.341C165.117 117.22 162.499 117.088 159.616 117.088C149.824 117.088 139.616 119.968 133.44 126.272C133.224 126.492 132.999 126.721 132.766 126.959C124.865 134.994 107.264 152.894 107.264 188.576C107.264 224.327 132.63 258.925 137.324 265.327C137.453 265.504 137.567 265.659 137.664 265.792C137.946 266.163 138.479 266.934 139.253 268.056C148.837 281.934 195.515 349.531 265.12 378.368C323.936 402.752 341.408 400.48 354.784 397.632Z" fill="#ffffff"></path> </svg>